<svg xmlns="http://www.w3.org/2000/svg" viewBox="0 0 22.36 30">
  <defs>
    <style>
      .cls-1 {
        fill: #a77b5b;
      }
    </style>
  </defs>
  <g id="rubbish-bin" transform="translate(-52.016)">
    <g id="Group_814" data-name="Group 814" transform="translate(52.016)">
      <path id="Path_1684" data-name="Path 1684" class="cls-1" d="M75.05,120.716a1.51,1.51,0,0,0,1.508,1.447H90.652a1.51,1.51,0,0,0,1.508-1.447l1.007-21.248H74.043Zm11.744-15.97a.613.613,0,0,1,.613-.613h.981a.613.613,0,0,1,.613.613v12.14a.613.613,0,0,1-.613.613h-.981a.613.613,0,0,1-.613-.613Zm-4.292,0a.613.613,0,0,1,.613-.613H84.1a.613.613,0,0,1,.613.613v12.14a.613.613,0,0,1-.613.613h-.981a.613.613,0,0,1-.613-.613v-12.14Zm-4.292,0a.613.613,0,0,1,.613-.613H79.8a.613.613,0,0,1,.613.613v12.14a.613.613,0,0,1-.613.613h-.981a.613.613,0,0,1-.613-.613Z" transform="translate(-72.425 -92.163)"/>
      <path id="Path_1685" data-name="Path 1685" class="cls-1" d="M73.428,1.545h-6.5V.316A.316.316,0,0,0,66.61,0H59.782a.316.316,0,0,0-.316.316V1.545h-6.5a.947.947,0,0,0-.947.947V5.469h22.36V2.493A.947.947,0,0,0,73.428,1.545Z" transform="translate(-52.016)"/>
    </g>
  </g>
</svg>
